<?xml version="1.0" ?><svg data-name="Layer 1" id="Layer_1" viewBox="0 0 48 48" xmlns="http://www.w3.org/2000/svg"><defs><style>.cls-1,.cls-2{fill:none;stroke:#000;stroke-miterlimit:10;stroke-width:2px;}.cls-2{stroke-linecap:round;}</style></defs><title/><line class="cls-1" x2="48" y1="46" y2="46"/><rect class="cls-1" height="5" width="8" x="4" y="38"/><rect class="cls-1" height="31" width="8" x="36" y="12"/><rect class="cls-1" height="24" width="8" x="28" y="19"/><rect class="cls-1" height="18" width="8" x="20" y="25"/><rect class="cls-1" height="9" width="8" x="12" y="34"/><circle class="cls-1" cx="3" cy="34" r="2"/><circle class="cls-1" cx="19" cy="21" r="2"/><circle class="cls-1" cx="11" cy="30" r="2"/><circle class="cls-1" cx="27" cy="15" r="2"/><circle class="cls-1" cx="35" cy="8" r="2"/><circle class="cls-1" cx="45" cy="8" r="2"/><line class="cls-1" x1="5" x2="9" y1="33" y2="31"/><line class="cls-1" x1="12" x2="18" y1="29" y2="22"/><line class="cls-1" x1="20" x2="26" y1="20" y2="16"/><line class="cls-1" x1="28" x2="34" y1="14" y2="9"/><line class="cls-1" x1="37" x2="43" y1="8" y2="8"/><path class="cls-2" d="M10,10a2.4,2.4,0,1,1,2.4-2.4"/><path class="cls-2" d="M10,10a2.4,2.4,0,1,1-2.4,2.4"/><line class="cls-2" x1="10" x2="10" y1="4" y2="5.2"/><line class="cls-2" x1="10" x2="10" y1="16" y2="14.8"/><circle class="cls-2" cx="10" cy="10" r="8"/></svg>