<svg xmlns="http://www.w3.org/2000/svg" xmlns:xlink="http://www.w3.org/1999/xlink" version="1.1" style="enable-background:new 0 0 327.682 327.682;" xml:space="preserve" width="327.682" height="327.682"><rect id="backgroundrect" width="100%" height="100%" x="0" y="0" fill="none" stroke="none"/>


















<g class="currentLayer" style=""><title>Layer 1</title><g id="svg_1" class="" fill="#ffffff" fill-opacity="1">
	<g id="svg_2" fill="#ffffff" fill-opacity="1">
		<path d="M130.342,234.956c0-0.002-0.007-0.003-0.007-0.005l-74.061-71.11l74.059-71.118c4-3.838,6.2-8.962,6.2-14.426    c0-5.465-2.2-10.59-6.2-14.43c-8.067-7.747-21.193-7.745-29.247,0.002L2.099,158.917C0.759,160.204,0,161.982,0,163.841    s0.76,3.637,2.099,4.924l98.982,95.049c4.033,3.874,9.327,5.811,14.626,5.811s10.593-1.937,14.628-5.811    c4-3.837,6.2-8.958,6.2-14.421C136.535,243.926,134.335,238.798,130.342,234.956z M120.88,253.966    c-2.794,2.688-7.533,2.697-10.341,0.002l-93.86-90.127l93.867-90.131c2.794-2.695,7.526-2.683,10.334,0.002    c1.287,1.241,2,2.867,2,4.582c0,1.714-0.713,3.338-2,4.579l-79.186,76.044c-1.34,1.287-2.099,3.065-2.099,4.924    s0.76,3.637,2.099,4.925l79.179,76.03c1.294,1.244,2.007,2.874,2.007,4.591C122.88,251.101,122.167,252.727,120.88,253.966z" id="svg_3" fill="#ffffff" fill-opacity="1"/>
	</g>
</g><g id="svg_4" class="" fill="#ffffff" fill-opacity="1">
	<g id="svg_5" fill="#ffffff" fill-opacity="1">
		<path d="M225.908,234.951l-74.061-71.11l74.061-71.117c4-3.838,6.2-8.962,6.2-14.426c0-5.465-2.2-10.59-6.2-14.43    c-8.067-7.743-21.187-7.745-29.254,0.002l-98.98,95.049c-1.34,1.287-2.099,3.065-2.099,4.924c0,1.859,0.759,3.637,2.099,4.924    l98.98,95.051c4.033,3.871,9.327,5.806,14.626,5.806c5.299,0,10.593-1.935,14.628-5.809c4-3.837,6.2-8.958,6.2-14.421    c0-5.466-2.2-10.595-6.193-14.437C225.915,234.954,225.908,234.952,225.908,234.951z M216.451,253.966    c-2.799,2.693-7.545,2.691-10.346,0.002l-93.853-90.127l93.851-90.127c2.799-2.693,7.545-2.691,10.346-0.002    c1.287,1.241,2,2.867,2,4.582c0,1.714-0.713,3.338-2,4.579l-79.186,76.044c-1.34,1.287-2.099,3.065-2.099,4.924    c0,1.859,0.759,3.637,2.099,4.925l79.181,76.03c1.294,1.244,2.007,2.874,2.007,4.591    C218.452,251.101,217.738,252.727,216.451,253.966z" id="svg_6" fill="#ffffff" fill-opacity="1"/>
	</g>
</g><g id="svg_7" class="selected" fill="#ffffff" fill-opacity="1">
	<g id="svg_8" fill="#ffffff" fill-opacity="1">
		<path d="M321.488,234.956c0-0.002-0.007-0.003-0.007-0.005l-74.061-71.11l74.061-71.117c4-3.838,6.2-8.962,6.2-14.426    c0-5.465-2.2-10.59-6.2-14.43c-8.061-7.741-21.193-7.733-29.254,0.002l-98.98,95.049c-1.34,1.287-2.099,3.065-2.099,4.924    c0,1.859,0.759,3.637,2.099,4.924l98.98,95.053c4.033,3.867,9.332,5.803,14.626,5.803c5.299,0,10.6-1.937,14.628-5.808    c4-3.837,6.2-8.958,6.2-14.421C327.682,243.926,325.482,238.798,321.488,234.956z M312.025,253.966    c-2.852,2.738-7.492,2.736-10.346,0.002l-93.853-90.127l93.851-90.126c2.852-2.737,7.492-2.737,10.346-0.003    c1.287,1.241,2,2.867,2,4.582c0,1.714-0.713,3.338-2,4.579l-79.186,76.044c-1.34,1.287-2.099,3.065-2.099,4.924    c0,1.859,0.759,3.637,2.099,4.925l79.181,76.03c1.294,1.244,2.007,2.874,2.007,4.591    C314.025,251.101,313.312,252.727,312.025,253.966z" id="svg_9" fill="#ffffff" fill-opacity="1"/>
	</g>
</g><g id="svg_10">
</g><g id="svg_11">
</g><g id="svg_12">
</g><g id="svg_13">
</g><g id="svg_14">
</g><g id="svg_15">
</g><g id="svg_16">
</g><g id="svg_17">
</g><g id="svg_18">
</g><g id="svg_19">
</g><g id="svg_20">
</g><g id="svg_21">
</g><g id="svg_22">
</g><g id="svg_23">
</g><g id="svg_24">
</g></g></svg>