<svg xmlns="http://www.w3.org/2000/svg" xmlns:xlink="http://www.w3.org/1999/xlink" version="1.1" style="enable-background:new 0 0 270 270;" xml:space="preserve" width="270" height="270"><rect id="backgroundrect" width="100%" height="100%" x="0" y="0" fill="none" stroke="none"/>



















<g class="currentLayer" style=""><title>Layer 1</title><g id="svg_1" class="" fill="#ffffff" fill-opacity="1">
	<g id="svg_2" fill="#ffffff" fill-opacity="1">
		<path d="M114,0H10C4.5,0,0,4.5,0,10v104c0,5.5,4.5,10,10,10h104c5.5,0,10-4.5,10-10V10C124,4.5,119.5,0,114,0z M104,104H20V20h84    V104z" id="svg_3" fill="#ffffff" fill-opacity="1"/>
	</g>
</g><g id="svg_4" class="" fill="#ffffff" fill-opacity="1">
	<g id="svg_5" fill="#ffffff" fill-opacity="1">
		<path d="M261.26582288742065,0.6329114437103271 H157.26582288742065 c-5.5,0 -10,4.5 -10,10 v104 c0,5.5 4.5,10 10,10 h104 c5.5,0 10,-4.5 10,-10 V10.632911443710327 C271.26582288742065,5.132911443710327 266.76582288742065,0.6329114437103271 261.26582288742065,0.6329114437103271 zM251.26582288742065,104.63291144371033 h-84 V20.632911443710327 h84 V104.63291144371033 z" id="svg_6" fill="#ffffff" fill-opacity="1"/>
	</g>
</g><g id="svg_7" class="selected" fill="#ffffff" fill-opacity="1">
	<g id="svg_8" fill="#ffffff" fill-opacity="1">
		<path d="M115.89873421192169,146.63291144371033 H11.898734211921692 c-5.5,0 -10,4.5 -10,10 v104 c0,5.5 4.5,10 10,10 h104 c5.5,0 10,-4.5 10,-10 V156.63291144371033 C125.89873421192169,151.13291144371033 121.39873421192169,146.63291144371033 115.89873421192169,146.63291144371033 zM105.89873421192169,250.63291144371033 H21.898734211921692 v-84 h84 V250.63291144371033 z" id="svg_9" fill="#ffffff" fill-opacity="1"/>
	</g>
</g><g id="svg_10" class="" fill="#ffffff" fill-opacity="1">
	<g id="svg_11" fill="#ffffff" fill-opacity="1">
		<path d="M260,146H156c-5.5,0-10,4.5-10,10v104c0,5.5,4.5,10,10,10h104c5.5,0,10-4.5,10-10V156C270,150.5,265.5,146,260,146z     M250,250h-84v-84h84V250z" id="svg_12" fill="#ffffff" fill-opacity="1"/>
	</g>
</g><g id="svg_13">
</g><g id="svg_14">
</g><g id="svg_15">
</g><g id="svg_16">
</g><g id="svg_17">
</g><g id="svg_18">
</g><g id="svg_19">
</g><g id="svg_20">
</g><g id="svg_21">
</g><g id="svg_22">
</g><g id="svg_23">
</g><g id="svg_24">
</g><g id="svg_25">
</g><g id="svg_26">
</g><g id="svg_27">
</g></g></svg>