<svg id="SvgjsSvg1024" width="288" height="288" xmlns="http://www.w3.org/2000/svg" version="1.1" xmlns:xlink="http://www.w3.org/1999/xlink" xmlns:svgjs="http://svgjs.com/svgjs"><defs id="SvgjsDefs1025"></defs><g id="SvgjsG1026"><svg xmlns="http://www.w3.org/2000/svg" width="288" height="288" enable-background="new 0 0 270 270"><rect width="100%" height="100%" fill="none"></rect><g class="currentLayer color000 svgShape" fill="#000000"><path fill="#ffffff" d="M114 0H10C4.5 0 0 4.5 0 10v104c0 5.5 4.5 10 10 10h104c5.5 0 10-4.5 10-10V10C124 4.5 119.5 0 114 0zM104 104H20V20h84V104zM261.26582288742065.6329114437103271H157.26582288742065c-5.5 0-10 4.5-10 10v104c0 5.5 4.5 10 10 10h104c5.5 0 10-4.5 10-10V10.632911443710327C271.26582288742065 5.132911443710327 266.76582288742065.6329114437103271 261.26582288742065.6329114437103271zM251.26582288742065 104.63291144371033h-84V20.632911443710327h84V104.63291144371033zM115.89873421192169 146.63291144371033H11.898734211921692c-5.5 0-10 4.5-10 10v104c0 5.5 4.5 10 10 10h104c5.5 0 10-4.5 10-10V156.63291144371033C125.89873421192169 151.13291144371033 121.39873421192169 146.63291144371033 115.89873421192169 146.63291144371033zM105.89873421192169 250.63291144371033H21.898734211921692v-84h84V250.63291144371033zM260 146H156c-5.5 0-10 4.5-10 10v104c0 5.5 4.5 10 10 10h104c5.5 0 10-4.5 10-10V156C270 150.5 265.5 146 260 146zM250 250h-84v-84h84V250z" class="colorfff svgShape"></path></g></svg></g></svg>