<svg xmlns="http://www.w3.org/2000/svg" height="533" width="533.33331"><rect id="backgroundrect" width="100%" height="100%" x="0" y="0" fill="none" stroke="none"/><g class="currentLayer" style=""><title>Layer 1</title><path d="m249.112464743989,25.082031 c39.39704288603139,0 78.85675754519845,11.152344 114.11354767189061,32.253907 c22.362071801281335,13.417968 42.456208561528804,30.28125 59.526433270728944,49.972656 l-58.89971553937232,-1.9375 c-6.917397461222888,-0.23046900000000003 -12.710618738389373,5.179687 -12.937804417380333,12.082031 c-0.22718567899096018,6.898437 5.19392269724381,12.679687 12.115236893600583,12.902344 l81.49289075752688,2.683593 c4.680797304008484,1.9218760000000001 10.06273632340765,0.8476570000000001 13.642860862408162,-2.726562 c3.5762078038666245,-3.5742190000000003 4.645545685055137,-8.941406 2.710554188117385,-13.609375 l-2.6831350366834403,-81.25 c-0.15667943283915522,-6.902344 -5.895063409886122,-12.371094 -12.816377606242895,-12.21875 c-6.917397461222888,0.15625000000000003 -12.409011080861092,5.878906 -12.252331648021936,12.777344 c0,0.09375000000000003 0,0.179687 0.007833470267772676,0.26953099999999997 l1.5511273878560068,46.875 c-17.242572085323214,-18.375 -36.94892800135505,-34.285156 -58.558938525008436,-47.265625 c-39.150273531371,-23.425781 -83.07143529132009,-35.8085938 -127.01218172968697,-35.8085938 c-70.19238591194153,0 -134.90882614752877,28.8632808 -182.20251345140196,81.2695308 c-41.8960803411901,46.425782 -66.90995129258704,108.914063 -66.90995129258704,167.160157 c0,6.902343 5.609123695641756,12.5 12.534354627132416,12.5 s12.534354627132416,-5.597657 12.534354627132416,-12.5 c0,-52.238281 22.604925423556207,-108.476563 60.47434434078002,-150.433594 c42.48362771296275,-47.066406 100.56861020157146,-72.996094 163.56941114894414,-72.996094 zm0,0 " id="svg_1" class="" fill="#ffffff" fill-opacity="1"/><path d="m487.5 236.011719c-6.90625 0-12.5 5.59375-12.5 12.5 0 52.234375-22.542969 108.476562-60.308594 150.4375-42.367187 47.066406-100.292968 72.988281-163.121094 72.988281-39.289062 0-78.640624-11.144531-113.800781-32.246094-22.300781-13.421875-42.339843-30.285156-59.363281-49.972656l58.738281 1.9375c6.898438.222656 12.675781-5.1875 12.902344-12.085938.226563-6.898437-5.179687-12.675781-12.082031-12.90625l-81.269532-2.679687c-4.667968-1.921875-10.035156-.84375-13.605468 2.726563-3.566406 3.574218-4.632813 8.9375-2.703125 13.605468l2.675781 81.25c.15625 6.90625 5.878906 12.378906 12.78125 12.222656 6.898438-.152343 12.375-5.875 12.21875-12.777343 0-.089844 0-.175781-.007812-.269531l-1.546876-46.875c17.195313 18.378906 36.847657 34.28125 58.398438 47.269531 39.042969 23.429687 82.84375 35.808593 126.664062 35.808593 70 0 134.539063-28.859374 181.703126-81.265624 41.78125-46.429688 66.726562-108.917969 66.726562-167.167969 0-6.90625-5.59375-12.5-12.5-12.5zm0 0" id="svg_2" class="selected" fill="#ffffff" fill-opacity="1"/></g></svg>